<svg xmlns="http://www.w3.org/2000/svg" version="1.1" xmlns:xlink="http://www.w3.org/1999/xlink" xmlns:svgjs="http://svgjs.dev/svgjs" width="1000" height="325" viewBox="0 0 1000 325"><g transform="matrix(1,0,0,1,-0.6060606060606233,-0.5102521950498442)"><svg viewBox="0 0 396 129" data-background-color="#ffffff" preserveAspectRatio="xMidYMid meet" height="325" width="1000" xmlns="http://www.w3.org/2000/svg" xmlns:xlink="http://www.w3.org/1999/xlink"><g id="tight-bounds" transform="matrix(1,0,0,1,0.2400000000000091,0.20253087126593528)"><svg viewBox="0 0 395.52 128.59493825746813" height="128.59493825746813" width="395.52"><g><svg viewBox="0 0 636.0537482126582 206.79938430379744" height="128.59493825746813" width="395.52"><g transform="matrix(1,0,0,1,240.5337482126582,74.8204516455696)"><svg viewBox="0 0 395.52 57.15848101265822" height="57.15848101265822" width="395.52"><g id="textblocktransform"><svg viewBox="0 0 395.52 57.15848101265822" height="57.15848101265822" width="395.52" id="textblock"><g><svg viewBox="0 0 395.52 57.15848101265822" height="57.15848101265822" width="395.52"><g transform="matrix(1,0,0,1,0,0)"><svg width="395.52" viewBox="-0.1 -33.45 231.43 33.45" height="57.15848101265822" data-palette-color="#a437db"><path d="M13.79-11.35L15.36-10.89 16.99-11.35 18.46-12.79 23.24-30.76 20.41-31.25 15.99-13.79 15.45-13.6 14.79-13.75 10.4-31.25 7.54-30.76 12.35-12.79 13.79-11.35ZM10.69-33.45L18.21-33.45Q20.68-33.45 22.68-32.71 24.68-31.98 26.09-30.71 27.49-29.44 28.25-27.75 29-26.05 29-24.15L29-24.15 29-9.3Q29-7.4 28.25-5.7 27.49-4 26.09-2.73 24.68-1.46 22.68-0.73 20.68 0 18.21 0L18.21 0 10.69 0Q8.23 0 6.23-0.73 4.22-1.46 2.82-2.73 1.42-4 0.66-5.7-0.1-7.4-0.1-9.3L-0.1-9.3-0.1-24.15Q-0.1-26.05 0.66-27.75 1.42-29.44 2.82-30.71 4.22-31.98 6.23-32.71 8.23-33.45 10.69-33.45L10.69-33.45ZM39.6-33.45L47.12-33.45Q49.58-33.45 51.58-32.71 53.59-31.98 54.99-30.71 56.39-29.44 57.15-27.75 57.91-26.05 57.91-24.15L57.91-24.15 57.91-9.3Q57.91-7.4 57.15-5.7 56.39-4 54.99-2.73 53.59-1.46 51.58-0.73 49.58 0 47.12 0L47.12 0 39.6 0Q37.13 0 35.13-0.73 33.13-1.46 31.72-2.73 30.32-4 29.56-5.7 28.81-7.4 28.81-9.3L28.81-9.3 28.81-24.15Q28.81-26.05 29.56-27.75 30.32-29.44 31.72-30.71 33.13-31.98 35.13-32.71 37.13-33.45 39.6-33.45L39.6-33.45ZM52.15-14.99L52.15-27.29 51.8-29.35 50.27-30.91 47.75-31.25 41.21-31.25 38.72-30.91 37.16-29.35 36.86-27.29 36.86-14.99 37.16-12.89 38.77-11.35 41.21-11.06 47.75-11.06 50.27-11.35 51.8-12.89 52.15-14.99ZM49.56-15.26L49.22-13.89 47.6-13.65 41.35-13.65 39.77-13.89 39.4-15.36 39.4-27.05 39.65-28.39 41.35-28.66 47.6-28.66 49.31-28.39 49.56-26.95 49.56-15.26ZM68.5-33.45L76.02-33.45Q78.49-33.45 80.49-32.71 82.49-31.98 83.89-30.71 85.3-29.44 86.05-27.75 86.81-26.05 86.81-24.15L86.81-24.15 86.81-9.3Q86.81-7.4 86.05-5.7 85.3-4 83.89-2.73 82.49-1.46 80.49-0.73 78.49 0 76.02 0L76.02 0 68.5 0Q66.04 0 64.03-0.73 62.03-1.46 60.63-2.73 59.22-4 58.47-5.7 57.71-7.4 57.71-9.3L57.71-9.3 57.71-24.15Q57.71-26.05 58.47-27.75 59.22-29.44 60.63-30.71 62.03-31.98 64.03-32.71 66.04-33.45 68.5-33.45L68.5-33.45ZM76.9-18.41L77.27-17.09 77.27-11.06 79.85-11.06 79.85-17.36 79-19.6 76.22-20.61 78.9-21.9 79.66-24.1 79.66-26.81 79.37-28.86 77.75-30.91 75.31-31.25 66.21-31.25 66.21-11.06 68.82-11.06 68.82-19.19 75.17-19.19 76.9-18.41ZM68.82-28.66L75.17-28.66 76.9-27.91 77.07-26.49 77.07-23.9 76.7-22.56 75.17-21.8 68.82-21.8 68.82-28.66ZM109.56-28.66L109.56-31.25 95.45-31.25 95.45-28.66 101.21-28.66 101.21-11.06 103.83-11.06 103.83-28.66 109.56-28.66ZM97.4-33.45L104.92-33.45Q107.39-33.45 109.39-32.71 111.39-31.98 112.8-30.71 114.2-29.44 114.96-27.75 115.72-26.05 115.72-24.15L115.72-24.15 115.72-9.3Q115.72-7.4 114.96-5.7 114.2-4 112.8-2.73 111.39-1.46 109.39-0.73 107.39 0 104.92 0L104.92 0 97.4 0Q94.94 0 92.94-0.73 90.93-1.46 89.53-2.73 88.13-4 87.37-5.7 86.61-7.4 86.61-9.3L86.61-9.3 86.61-24.15Q86.61-26.05 87.37-27.75 88.13-29.44 89.53-30.71 90.93-31.98 92.94-32.71 94.94-33.45 97.4-33.45L97.4-33.45ZM137.71-11.06L137.71-13.65 127.97-13.65 127.97-19.85 136.12-19.85 136.12-22.41 127.97-22.41 127.97-28.66 137.37-28.66 137.37-31.25 125.43-31.25 125.43-11.06 137.71-11.06ZM126.31-33.45L133.83-33.45Q136.29-33.45 138.3-32.71 140.3-31.98 141.7-30.71 143.11-29.44 143.86-27.75 144.62-26.05 144.62-24.15L144.62-24.15 144.62-9.3Q144.62-7.4 143.86-5.7 143.11-4 141.7-2.73 140.3-1.46 138.3-0.73 136.29 0 133.83 0L133.83 0 126.31 0Q123.84 0 121.84-0.73 119.84-1.46 118.43-2.73 117.03-4 116.27-5.7 115.52-7.4 115.52-9.3L115.52-9.3 115.52-24.15Q115.52-26.05 116.27-27.75 117.03-29.44 118.43-30.71 119.84-31.98 121.84-32.71 123.84-33.45 126.31-33.45L126.31-33.45ZM155.21-33.45L162.73-33.45Q165.2-33.45 167.2-32.71 169.2-31.98 170.61-30.71 172.01-29.44 172.77-27.75 173.52-26.05 173.52-24.15L173.52-24.15 173.52-9.3Q173.52-7.4 172.77-5.7 172.01-4 170.61-2.73 169.2-1.46 167.2-0.73 165.2 0 162.73 0L162.73 0 155.21 0Q152.75 0 150.74-0.73 148.74-1.46 147.34-2.73 145.93-4 145.18-5.7 144.42-7.4 144.42-9.3L144.42-9.3 144.42-24.15Q144.42-26.05 145.18-27.75 145.93-29.44 147.34-30.71 148.74-31.98 150.74-32.71 152.75-33.45 155.21-33.45L155.21-33.45ZM168.13-30.4L165.71-31.3 160.17-22.51 154.77-31.3 152.43-30.3 158.12-21.09 152.48-11.94 154.77-11.01 160.17-19.51 165.71-11.01 168.03-11.94 162.37-21.09 168.13-30.4ZM187.92-13.65L182.16-13.65 182.16-11.06 196.27-11.06 196.27-13.65 190.54-13.65 190.54-28.66 196.27-28.66 196.27-31.25 182.16-31.25 182.16-28.66 187.92-28.66 187.92-13.65ZM184.12-33.45L191.64-33.45Q194.1-33.45 196.1-32.71 198.11-31.98 199.51-30.71 200.91-29.44 201.67-27.75 202.43-26.05 202.43-24.15L202.43-24.15 202.43-9.3Q202.43-7.4 201.67-5.7 200.91-4 199.51-2.73 198.11-1.46 196.1-0.73 194.1 0 191.64 0L191.64 0 184.12 0Q181.65 0 179.65-0.73 177.65-1.46 176.24-2.73 174.84-4 174.08-5.7 173.32-7.4 173.32-9.3L173.32-9.3 173.32-24.15Q173.32-26.05 174.08-27.75 174.84-29.44 176.24-30.71 177.65-31.98 179.65-32.71 181.65-33.45 184.12-33.45L184.12-33.45ZM213.02-33.45L220.54-33.45Q223-33.45 225.01-32.71 227.01-31.98 228.41-30.71 229.82-29.44 230.57-27.75 231.33-26.05 231.33-24.15L231.33-24.15 231.33-9.3Q231.33-7.4 230.57-5.7 229.82-4 228.41-2.73 227.01-1.46 225.01-0.73 223 0 220.54 0L220.54 0 213.02 0Q210.55 0 208.55-0.73 206.55-1.46 205.15-2.73 203.74-4 202.99-5.7 202.23-7.4 202.23-9.3L202.23-9.3 202.23-24.15Q202.23-26.05 202.99-27.75 203.74-29.44 205.15-30.71 206.55-31.98 208.55-32.71 210.55-33.45 213.02-33.45L213.02-33.45ZM222.32-16.26L222.79-11.06 225.57-11.06 223.64-29.25 222.13-30.76 218.88-31.25 216.27-31.25 213.02-30.76 211.53-29.25 209.53-11.06 212.43-11.06 212.82-16.26 213.07-18.51 222.08-18.51 222.32-16.26ZM218.78-28.66L221.08-28.3Q221.25-26.32 221.47-24.56 221.69-22.8 221.88-20.85L221.88-20.85 213.29-20.85 214.02-28.3Q214.7-28.37 215.2-28.47 215.71-28.56 216.39-28.66L216.39-28.66 218.78-28.66Z" opacity="1" transform="matrix(1,0,0,1,0,0)" fill="#a437db" class="undefined-text-0" data-fill-palette-color="primary" id="text-0"></path></svg></g></svg></g></svg></g></svg></g><g><svg viewBox="0 0 206.79938430379744 206.79938430379744" height="206.79938430379744" width="206.79938430379744"><g><svg viewBox="0 0 206.79938430379744 206.79938430379744" height="206.79938430379744" width="206.79938430379744"><g transform="matrix(1,0,0,1,54.6566098230927,57.8755857390985)"><svg viewBox="0 0 97.48616465761204 91.04821282560044" height="91.04821282560044" width="97.48616465761204"><g><svg xmlns="http://www.w3.org/2000/svg" xmlns:xlink="http://www.w3.org/1999/xlink" version="1.1" x="0" y="0" viewBox="5.557 8.492 88.886 83.01599999999999" enable-background="new 0 0 100 100" xml:space="preserve" height="91.04821282560044" width="97.48616465761204" class="icon-_$-0" data-fill-palette-color="accent" id="_$-0"><g fill="#bb84e8" data-fill-palette-color="accent"><polygon fill-rule="evenodd" clip-rule="evenodd" points="6.526,57.176 22.613,8.492 38.841,57.317 6.526,57.176  " fill="#bb84e8" data-fill-palette-color="accent"></polygon><polygon fill-rule="evenodd" clip-rule="evenodd" points="25.922,8.859 77.195,8.987 35.85,39.612 25.922,8.859  " fill="#bb84e8" data-fill-palette-color="accent"></polygon><polygon fill-rule="evenodd" clip-rule="evenodd" points="78.083,11.463 94.443,60.056 52.154,30.749 78.083,11.463  " fill="#bb84e8" data-fill-palette-color="accent"></polygon><polygon fill-rule="evenodd" clip-rule="evenodd" points="91.311,61.322 49.865,91.508 65.133,42.374 91.311,61.322  " fill="#bb84e8" data-fill-palette-color="accent"></polygon><polygon fill-rule="evenodd" clip-rule="evenodd" points="56.83,60.001 5.557,60.129 46.902,90.753 56.83,60.001  " fill="#bb84e8" data-fill-palette-color="accent"></polygon></g></svg></g></svg></g><g><path d="M54.141 187.972L54.692 188.558 55.509 188.765 56.502 188.508 63 182.007 61.909 181.097 55.692 187.472 55.408 187.423 55.171 187.193 57.625 178.613 56.284 178.113 53.888 186.993ZM58.302 177.745L61.521 179.612C62.225 180.02 62.803 180.493 63.253 181.032 63.704 181.571 64.023 182.138 64.211 182.732 64.398 183.326 64.461 183.929 64.399 184.541 64.332 185.15 64.141 185.725 63.826 186.267V186.267L60.143 192.62C59.829 193.162 59.424 193.614 58.93 193.975 58.429 194.332 57.875 194.577 57.266 194.71 56.657 194.843 56.007 194.847 55.315 194.724 54.624 194.601 53.926 194.335 53.222 193.927V193.927L50.002 192.06C49.298 191.652 48.721 191.178 48.27 190.64 47.819 190.101 47.497 189.532 47.304 188.935 47.117 188.34 47.057 187.739 47.125 187.131 47.186 186.519 47.374 185.942 47.689 185.399V185.399L51.372 179.047C51.686 178.504 52.094 178.054 52.594 177.697 53.088 177.336 53.64 177.089 54.249 176.956 54.864 176.827 55.517 176.824 56.208 176.948 56.9 177.071 57.598 177.337 58.302 177.745ZM69.886 183.662L73.349 185.026C74.106 185.325 74.748 185.706 75.274 186.172 75.8 186.637 76.2 187.15 76.475 187.709 76.749 188.269 76.901 188.856 76.932 189.47 76.956 190.082 76.853 190.679 76.623 191.262V191.262L73.932 198.094C73.702 198.678 73.37 199.185 72.935 199.616 72.494 200.044 71.982 200.369 71.4 200.592 70.818 200.814 70.175 200.916 69.473 200.897 68.771 200.878 68.041 200.72 67.284 200.422V200.422L63.821 199.058C63.064 198.759 62.423 198.378 61.896 197.912 61.37 197.447 60.967 196.933 60.686 196.371 60.412 195.811 60.263 195.226 60.239 194.614 60.208 194 60.308 193.401 60.538 192.818V192.818L63.229 185.986C63.459 185.403 63.794 184.897 64.235 184.468 64.67 184.038 65.179 183.711 65.761 183.489 66.35 183.269 66.995 183.168 67.697 183.187 68.4 183.206 69.129 183.364 69.886 183.662ZM72.309 194.434L74.543 188.765 74.755 187.763 74.33 186.768 73.238 186.155 70.222 184.967 69.015 184.674 68.016 185.108 67.515 185.997 65.282 191.665 65.031 192.685 65.497 193.686 66.562 194.256 69.578 195.444 70.784 195.768 71.77 195.34ZM71.169 193.834L70.762 194.405 69.982 194.227 67.106 193.094 66.415 192.692 66.511 191.956 68.634 186.567 68.988 185.997 69.827 186.187 72.703 187.32 73.437 187.749 73.289 188.454ZM82.223 187.778L85.851 188.607C86.644 188.789 87.336 189.07 87.926 189.451 88.516 189.832 88.989 190.279 89.344 190.791 89.699 191.303 89.937 191.861 90.06 192.464 90.175 193.065 90.163 193.671 90.023 194.282V194.282L88.387 201.44C88.247 202.051 87.994 202.603 87.629 203.094 87.257 203.583 86.8 203.982 86.258 204.289 85.715 204.596 85.096 204.793 84.398 204.88 83.701 204.966 82.956 204.919 82.163 204.738V204.738L78.535 203.908C77.742 203.727 77.05 203.446 76.46 203.064 75.87 202.683 75.394 202.236 75.032 201.722 74.677 201.21 74.442 200.653 74.326 200.052 74.204 199.449 74.213 198.842 74.353 198.231V198.231L75.99 191.073C76.129 190.462 76.385 189.911 76.757 189.422 77.123 188.931 77.576 188.532 78.119 188.225 78.668 187.919 79.291 187.723 79.988 187.636 80.685 187.549 81.43 187.596 82.223 187.778ZM84.611 195.959L84.642 196.633 83.977 199.539 85.226 199.825 85.919 196.792 85.757 195.616 84.523 194.82 85.963 194.493 86.576 193.514 86.875 192.207 86.954 191.189 86.399 190.026 85.267 189.592 80.868 188.587 78.643 198.319 79.901 198.607 80.797 194.687 83.86 195.387ZM81.841 190.122L84.903 190.823 85.66 191.375 85.591 192.078 85.306 193.326 84.973 193.928 84.147 194.129 81.085 193.429ZM100.859 192.811L100.954 191.534 93.991 191.014 93.895 192.291 96.738 192.503 96.09 201.183 97.377 201.279 98.025 192.599ZM95.04 189.999L98.751 190.276C99.562 190.337 100.288 190.511 100.929 190.8 101.569 191.088 102.103 191.459 102.531 191.913 102.959 192.366 103.278 192.881 103.489 193.459 103.693 194.036 103.772 194.637 103.725 195.262V195.262L103.179 202.585C103.132 203.21 102.965 203.793 102.677 204.333 102.382 204.873 101.99 205.335 101.5 205.72 101.01 206.105 100.426 206.392 99.75 206.582 99.074 206.773 98.33 206.838 97.518 206.777V206.777L93.807 206.5C92.996 206.439 92.27 206.265 91.629 205.976 90.989 205.687 90.451 205.316 90.017 204.862 89.589 204.409 89.273 203.894 89.069 203.317 88.858 202.739 88.776 202.138 88.822 201.513V201.513L89.369 194.19C89.416 193.565 89.587 192.982 89.881 192.443 90.169 191.902 90.558 191.44 91.048 191.055 91.545 190.671 92.132 190.384 92.808 190.193 93.484 190.003 94.228 189.938 95.04 189.999ZM114.507 200.894L114.411 199.617 109.602 199.981 109.371 196.919 113.391 196.615 113.296 195.358 109.275 195.662 109.042 192.579 113.681 192.228 113.584 190.951 107.689 191.398 108.442 201.353ZM108.045 190.277L111.756 189.996C112.567 189.935 113.311 189.999 113.988 190.188 114.664 190.378 115.248 190.665 115.739 191.049 116.229 191.433 116.622 191.895 116.917 192.435 117.205 192.975 117.373 193.557 117.42 194.183V194.183L117.975 201.505C118.022 202.13 117.944 202.731 117.74 203.308 117.53 203.886 117.211 204.402 116.784 204.855 116.356 205.309 115.823 205.681 115.183 205.97 114.542 206.259 113.816 206.435 113.005 206.496V206.496L109.294 206.777C108.483 206.838 107.739 206.774 107.062 206.585 106.386 206.395 105.799 206.108 105.302 205.725 104.811 205.34 104.422 204.878 104.133 204.338 103.838 203.799 103.667 203.216 103.62 202.591V202.591L103.066 195.269C103.018 194.644 103.1 194.043 103.31 193.465 103.514 192.888 103.829 192.372 104.257 191.918 104.69 191.464 105.227 191.092 105.868 190.803 106.508 190.514 107.234 190.339 108.045 190.277ZM120.945 188.607L124.572 187.774C125.365 187.591 126.11 187.543 126.807 187.63 127.505 187.716 128.125 187.912 128.667 188.219 129.21 188.525 129.667 188.923 130.04 189.412 130.406 189.903 130.659 190.454 130.799 191.065V191.065L132.443 198.222C132.583 198.833 132.596 199.439 132.481 200.04 132.359 200.643 132.121 201.2 131.767 201.713 131.413 202.225 130.941 202.673 130.351 203.054 129.761 203.436 129.07 203.718 128.277 203.9V203.9L124.65 204.734C123.856 204.916 123.111 204.964 122.414 204.878 121.717 204.792 121.094 204.596 120.545 204.291 120.002 203.984 119.548 203.586 119.182 203.095 118.809 202.606 118.553 202.056 118.413 201.445V201.445L116.769 194.288C116.628 193.677 116.619 193.07 116.74 192.467 116.855 191.866 117.09 191.309 117.445 190.797 117.806 190.283 118.281 189.835 118.871 189.453 119.46 189.071 120.152 188.789 120.945 188.607ZM127.504 188.65L126.243 188.478 124.545 193.333 120.968 189.69 119.949 190.437 123.708 194.244 122.012 199.283 123.217 199.479 124.877 194.776 128.491 198.267 129.51 197.561 125.765 193.771ZM138.795 193.442L136.143 194.489 136.614 195.68 143.108 193.114 142.638 191.924 139.995 192.968 137.268 186.064 139.91 185.02 139.439 183.829 132.945 186.395 133.416 187.586 136.067 186.538ZM133.447 185.024L136.908 183.656C137.665 183.357 138.394 183.198 139.097 183.179 139.799 183.16 140.441 183.261 141.024 183.483 141.606 183.704 142.118 184.029 142.56 184.457 142.995 184.887 143.328 185.394 143.558 185.977V185.977L146.257 192.806C146.487 193.389 146.59 193.987 146.567 194.599 146.537 195.213 146.385 195.8 146.112 196.36 145.838 196.919 145.438 197.432 144.912 197.898 144.386 198.364 143.745 198.747 142.988 199.046V199.046L139.527 200.413C138.77 200.712 138.041 200.871 137.339 200.891 136.636 200.91 135.991 200.81 135.402 200.591 134.82 200.369 134.311 200.043 133.876 199.613 133.434 199.185 133.098 198.679 132.868 198.096V198.096L130.169 191.267C129.939 190.684 129.839 190.085 129.869 189.471 129.892 188.859 130.041 188.274 130.314 187.714 130.594 187.151 130.997 186.637 131.523 186.171 132.049 185.705 132.69 185.323 133.447 185.024ZM145.274 179.608L148.492 177.738C149.195 177.329 149.893 177.063 150.584 176.939 151.276 176.814 151.926 176.818 152.535 176.95 153.144 177.083 153.699 177.327 154.199 177.684 154.694 178.045 155.099 178.496 155.414 179.038V179.038L159.104 185.387C159.419 185.929 159.61 186.504 159.678 187.112 159.741 187.724 159.678 188.327 159.492 188.922 159.305 189.516 158.986 190.083 158.536 190.623 158.086 191.162 157.509 191.636 156.805 192.045V192.045L153.588 193.915C152.884 194.323 152.187 194.59 151.495 194.714 150.804 194.838 150.151 194.836 149.536 194.707 148.927 194.575 148.375 194.329 147.88 193.968 147.379 193.611 146.972 193.162 146.657 192.62V192.62L142.967 186.271C142.652 185.729 142.464 185.152 142.401 184.54 142.333 183.932 142.392 183.33 142.579 182.736 142.772 182.138 143.093 181.569 143.543 181.03 143.994 180.491 144.57 180.017 145.274 179.608ZM153.525 184.648L155.016 186.755 156.201 186.067 150.861 178.768 149.835 178.496 148.33 179.093 147.206 179.747 145.942 180.758 145.679 181.779 149.342 190.053 150.587 189.329 149.46 187.01 149.006 185.99 152.864 183.748ZM148.93 180.225L149.998 179.813C150.379 180.348 150.745 180.845 151.096 181.304 151.445 181.772 151.811 182.269 152.194 182.795V182.795L148.518 184.931 146.98 181.567C147.162 181.43 147.317 181.305 147.445 181.193 147.572 181.08 147.724 180.957 147.901 180.824V180.824Z" fill="#bb84e8" data-fill-palette-color="accent"></path><path d="M56.795 23.429L57.586 23.237 58.163 22.636 58.438 21.655 56.028 12.772 54.696 13.267 57.136 21.844 56.948 22.057 56.636 22.157 50.403 15.756 49.303 16.672 55.824 23.171ZM49.991 14.747L53.21 12.88C53.914 12.471 54.612 12.206 55.304 12.082 55.995 11.959 56.645 11.963 57.254 12.096 57.869 12.225 58.424 12.47 58.918 12.831 59.418 13.188 59.826 13.638 60.14 14.181V14.181L63.824 20.533C64.138 21.075 64.327 21.652 64.388 22.264 64.456 22.873 64.393 23.476 64.2 24.073 64.013 24.668 63.694 25.234 63.243 25.773 62.792 26.312 62.215 26.786 61.511 27.194V27.194L58.292 29.061C57.588 29.469 56.89 29.735 56.198 29.858 55.507 29.982 54.854 29.979 54.239 29.85 53.63 29.717 53.078 29.47 52.584 29.109 52.084 28.752 51.676 28.302 51.362 27.76V27.76L47.678 21.407C47.364 20.865 47.175 20.288 47.114 19.676 47.046 19.068 47.106 18.466 47.293 17.872 47.486 17.274 47.808 16.706 48.259 16.167 48.71 15.628 49.287 15.155 49.991 14.747ZM63.812 7.746L67.275 6.381C68.032 6.083 68.761 5.925 69.464 5.906 70.166 5.887 70.808 5.989 71.39 6.211 71.979 6.431 72.49 6.756 72.925 7.187 73.367 7.616 73.702 8.121 73.932 8.705V8.705L76.624 15.537C76.854 16.12 76.953 16.719 76.923 17.333 76.899 17.944 76.746 18.531 76.466 19.093 76.192 19.653 75.792 20.165 75.265 20.631 74.739 21.096 74.097 21.478 73.34 21.776V21.776L69.878 23.141C69.121 23.439 68.391 23.597 67.689 23.616 66.986 23.635 66.341 23.534 65.753 23.314 65.171 23.092 64.662 22.766 64.227 22.335 63.786 21.907 63.45 21.401 63.221 20.817V20.817L60.529 13.986C60.299 13.402 60.199 12.804 60.23 12.189 60.254 11.578 60.403 10.992 60.677 10.432 60.958 9.87 61.361 9.357 61.887 8.891 62.413 8.426 63.055 8.044 63.812 7.746ZM72.941 13.966L70.707 8.298 70.175 7.411 69.185 6.973 67.959 7.273 64.953 8.458 63.861 9.07 63.427 10.07 63.67 11.07 65.904 16.739 66.412 17.646 67.435 18.06 68.616 17.756 71.623 16.571 72.731 15.973 73.16 14.987ZM71.698 14.305L71.789 15.001 71.088 15.406 68.212 16.539 67.433 16.717 66.998 16.103 64.878 10.724 64.748 10.065 65.487 9.623 68.364 8.49 69.206 8.309 69.578 8.925ZM78.528 2.893L82.156 2.063C82.949 1.882 83.695 1.834 84.392 1.921 85.089 2.008 85.709 2.205 86.251 2.512 86.8 2.818 87.257 3.216 87.622 3.707 87.994 4.197 88.25 4.747 88.39 5.358V5.358L90.027 12.517C90.167 13.128 90.175 13.735 90.053 14.337 89.938 14.938 89.699 15.496 89.338 16.009 88.983 16.522 88.51 16.968 87.92 17.35 87.33 17.731 86.638 18.012 85.845 18.194V18.194L82.217 19.023C81.424 19.205 80.679 19.252 79.982 19.165 79.284 19.078 78.661 18.882 78.113 18.576 77.57 18.269 77.116 17.87 76.751 17.379 76.379 16.89 76.123 16.339 75.983 15.728V15.728L74.346 8.57C74.207 7.959 74.198 7.352 74.32 6.749 74.436 6.148 74.671 5.591 75.026 5.079 75.387 4.565 75.863 4.118 76.453 3.737 77.043 3.355 77.735 3.074 78.528 2.893ZM84.233 9.213L84.555 9.817 85.22 12.723 86.468 12.438 85.772 9.395 85.115 8.406 83.67 8.234 84.815 7.315 84.942 6.167 84.643 4.86 84.272 3.909 83.274 3.09 82.056 3.194 77.657 4.2 79.885 13.943 81.153 13.653 80.257 9.733 83.319 9.032ZM79.211 5.159L82.273 4.458 83.187 4.639 83.431 5.302 83.716 6.55 83.688 7.234 83.031 7.774 79.969 8.474ZM99.975 2.207L99.88 0.93 92.917 1.45 93.012 2.727 95.855 2.514 96.504 11.204 97.801 11.107 97.152 2.417ZM93.804 0.3L97.515 0.023C98.326-0.038 99.07 0.027 99.747 0.217 100.423 0.408 101.006 0.695 101.496 1.08 101.993 1.464 102.386 1.926 102.673 2.467 102.968 3.006 103.138 3.589 103.185 4.214V4.214L103.732 11.537C103.779 12.162 103.696 12.763 103.485 13.341 103.281 13.918 102.962 14.433 102.527 14.887 102.1 15.34 101.566 15.711 100.925 16 100.285 16.289 99.559 16.463 98.747 16.524V16.524L95.036 16.801C94.225 16.861 93.481 16.797 92.804 16.606 92.128 16.416 91.541 16.129 91.045 15.745 90.554 15.36 90.165 14.897 89.878 14.357 89.583 13.817 89.413 13.235 89.366 12.61V12.61L88.819 5.287C88.772 4.662 88.855 4.06 89.066 3.483 89.27 2.906 89.586 2.391 90.014 1.937 90.448 1.484 90.985 1.112 91.626 0.824 92.266 0.535 92.992 0.361 93.804 0.3ZM114.084 11.492L114.181 10.215 109.372 9.851 109.604 6.788 113.625 7.093 113.721 5.826 109.7 5.521 109.934 2.439 114.572 2.79 114.669 1.513 108.774 1.067 108.019 11.032ZM109.294 0.023L113.005 0.304C113.816 0.365 114.542 0.54 115.182 0.83 115.823 1.119 116.356 1.491 116.784 1.944 117.217 2.399 117.536 2.914 117.74 3.492 117.95 4.069 118.032 4.671 117.984 5.296V5.296L117.43 12.618C117.382 13.243 117.211 13.825 116.916 14.365 116.628 14.905 116.235 15.367 115.738 15.751 115.247 16.135 114.664 16.422 113.987 16.611 113.311 16.801 112.567 16.865 111.755 16.803V16.803L108.044 16.522C107.233 16.461 106.507 16.285 105.867 15.996 105.227 15.707 104.69 15.335 104.256 14.881 103.829 14.427 103.513 13.912 103.31 13.334 103.099 12.757 103.018 12.155 103.065 11.53V11.53L103.62 4.208C103.667 3.583 103.838 3 104.133 2.461 104.422 1.921 104.811 1.459 105.302 1.075 105.799 0.691 106.386 0.404 107.062 0.215 107.739 0.025 108.483-0.039 109.294 0.023ZM124.653 2.066L128.28 2.9C129.073 3.082 129.764 3.364 130.354 3.746 130.944 4.128 131.416 4.575 131.77 5.088 132.131 5.602 132.369 6.16 132.484 6.761 132.605 7.364 132.596 7.971 132.456 8.582V8.582L130.811 15.738C130.671 16.349 130.414 16.899 130.042 17.388 129.676 17.879 129.218 18.277 128.669 18.582 128.126 18.888 127.506 19.085 126.809 19.171 126.112 19.257 125.367 19.209 124.574 19.027V19.027L120.947 18.193C120.154 18.011 119.462 17.729 118.873 17.347 118.283 16.965 117.808 16.517 117.447 16.003 117.092 15.49 116.858 14.933 116.743 14.332 116.621 13.729 116.631 13.122 116.771 12.511V12.511L118.416 5.355C118.556 4.744 118.812 4.194 119.185 3.705 119.551 3.214 120.005 2.815 120.548 2.509 121.097 2.204 121.72 2.008 122.417 1.922 123.115 1.836 123.86 1.884 124.653 2.066ZM130.545 4.971L129.476 4.263 125.829 7.89 124.201 3.051 122.96 3.269 124.688 8.346 120.955 12.128 121.953 12.83 125.498 9.333 127.228 14.042 128.452 13.851 126.735 8.817ZM137.683 16.188L135.031 15.14 134.56 16.331 141.054 18.898 141.525 17.707 138.892 16.667 141.624 9.754 144.257 10.794 144.728 9.604 138.234 7.037 137.763 8.228 140.415 9.276ZM139.534 6.389L142.995 7.757C143.751 8.056 144.392 8.438 144.918 8.904 145.444 9.37 145.844 9.883 146.117 10.443 146.397 11.006 146.549 11.593 146.572 12.204 146.602 12.818 146.502 13.417 146.271 14V14L143.572 20.829C143.342 21.412 143.006 21.918 142.564 22.345 142.129 22.776 141.617 23.1 141.028 23.32 140.445 23.541 139.803 23.642 139.101 23.623 138.398 23.604 137.669 23.444 136.912 23.145V23.145L133.451 21.777C132.695 21.478 132.053 21.096 131.528 20.63 131.002 20.164 130.599 19.649 130.319 19.087 130.046 18.527 129.897 17.941 129.874 17.33 129.844 16.715 129.944 16.117 130.175 15.534V15.534L132.874 8.705C133.104 8.122 133.44 7.616 133.882 7.188 134.317 6.758 134.826 6.432 135.409 6.211 135.997 5.991 136.643 5.892 137.345 5.911 138.047 5.93 138.777 6.09 139.534 6.389ZM153.596 12.89L156.814 14.76C157.517 15.169 158.094 15.644 158.544 16.183 158.994 16.722 159.313 17.289 159.5 17.884 159.692 18.482 159.754 19.085 159.686 19.693 159.623 20.305 159.435 20.882 159.12 21.424V21.424L155.429 27.772C155.114 28.314 154.706 28.764 154.206 29.121 153.711 29.481 153.156 29.725 152.541 29.854 151.932 29.986 151.282 29.99 150.59 29.866 149.899 29.741 149.201 29.475 148.498 29.066V29.066L145.28 27.195C144.577 26.787 144 26.312 143.55 25.773 143.1 25.234 142.779 24.665 142.586 24.067 142.399 23.472 142.34 22.871 142.408 22.263 142.471 21.651 142.66 21.074 142.975 20.532V20.532L146.665 14.184C146.98 13.642 147.388 13.192 147.889 12.835 148.384 12.475 148.936 12.229 149.545 12.097 150.159 11.968 150.813 11.966 151.504 12.09 152.196 12.215 152.893 12.481 153.597 12.89ZM153.301 22.555L152.208 24.893 153.402 25.587 157.096 17.32 156.825 16.294 155.562 15.282 154.446 14.634 152.933 14.032 151.916 14.308 146.534 21.595 147.78 22.319 149.236 20.191 149.898 19.292 153.756 21.534ZM154.875 16.364L155.762 17.088C155.485 17.683 155.233 18.25 155.005 18.789 154.776 19.327 154.526 19.891 154.252 20.481V20.481L150.577 18.344 152.743 15.333C152.949 15.43 153.133 15.506 153.294 15.561 153.455 15.616 153.641 15.686 153.854 15.771V15.771Z" fill="#bb84e8" data-fill-palette-color="accent"></path><path d="M1.911 103.399c0-3.491 2.83-6.321 6.321-6.321 3.491 0 6.321 2.83 6.321 6.321 0 3.491-2.83 6.321-6.321 6.32-3.491 0-6.321-2.83-6.321-6.32zM192.247 103.399c0-3.491 2.83-6.321 6.321-6.321 3.491 0 6.321 2.83 6.321 6.321 0 3.491-2.83 6.321-6.321 6.32-3.491 0-6.321-2.83-6.321-6.32z" fill="#bb84e8" data-fill-palette-color="accent"></path></g></svg></g></svg></g></svg></g><defs></defs></svg><rect width="395.52" height="128.59493825746813" fill="none" stroke="none" visibility="hidden"></rect></g></svg></g></svg>