<?xml version="1.0" standalone="no"?>
<!DOCTYPE svg PUBLIC "-//W3C//DTD SVG 20010904//EN"
 "http://www.w3.org/TR/2001/REC-SVG-20010904/DTD/svg10.dtd">
<svg version="1.0" xmlns="http://www.w3.org/2000/svg"
 width="50.000000pt" height="50.000000pt" viewBox="0 0 50.000000 50.000000"
 preserveAspectRatio="xMidYMid meet">

<g transform="translate(0.000000,50.000000) scale(0.100000,-0.100000)"
fill="#000000" stroke="none">
<path d="M90 250 c0 -153 4 -240 10 -240 6 0 10 38 10 93 l0 92 170 69 c94 37
170 72 170 76 0 7 -338 150 -354 150 -3 0 -6 -108 -6 -240z m183 148 c70 -29
127 -55 127 -58 0 -5 -198 -89 -272 -116 -17 -6 -18 4 -18 116 0 112 1 122 18
116 9 -4 74 -30 145 -58z"/>
</g>
</svg>
